<svg height="38" viewBox="0 0 512 227" width="85"><path d="m511.187 131.02c-2.023-10.534-4.803-16.496-7.976-23.603-2.024-4.533-3.894-8.8143-4.517-11.6256-1.542-6.9572-.786-15.6749-.429-18.8355h-18.669l-3.145 5.0048c-7.17 11.4114-22.843 36.3773-22.844 36.3783-8.683 13.047-19.486 29.279-35.054 35.419-2.94.993-9.16 3.009-14.084-2.636-4.692-5.378-4.284-11.185-4.265-11.43l.019-.259.012-.158.116-.11.192-.183c20.572-19.526 40.204-40.9553 50.014-54.5943 11.299-15.708 16.965-28.636 21.389-39.5206 2.755-6.7836 8.483-23.8062 2.183-35.33072-2.634-4.81922-7.095-8.0903-12.562-9.210855-1.07-.219044-2.096-.325525-3.135-.325525-11.595 0-25.334 14.565-42.002 44.5274-13.873 24.933-23.735 46.3477-29.31 63.6496-2.885 8.952-4.781 20.293-4.781 20.294-.625 1.124-11.964 14.2-23.161 21.616-3.748 2.482-9.27 5.551-17.176 5.551-7.161 0-13.803-4.38-13.805-4.381.003-.001 11.506-6.205 30.046-24.409 10.019-9.839 14.254-23.282 11.052-35.0842-5.025-18.5001-22.707-19.9378-28.007-19.9378-14.773.0453-26.784 9.6267-32.58 17.8174-13.975 19.7376-13.364 35.9006-11.269 47.7756.679 3.838 1.916 7.619 3.676 11.235l.175.358c-.002.001-22.019 15.42-35.237-2.416-5.073-6.846-12.895-21.059-12.896-21.062l46.081-48.5727h-24.766c-15.752 16.3204-30.473 31.7397-30.476 31.7427-.001-.003-10.851-20.7917-15.997-31.7481h-20.008c1.752 3.457 3.517 7.0262 5.444 10.9209 6.353 12.8422 17.543 34.4722 17.544 34.4742-.001.002-4.776 4.988-4.777 4.99-2.527 2.626-10.22 10.617-22.593 18.212-6.912 4.235-14.168 7.132-22.182 8.856-6.27 1.35-14.344 1.499-19.205.195-2.78-.746-8.016-3.301-8.016-3.301.002-.002 14.478-9.066 30.111-24.445 10.01-9.847 14.246-23.29 11.054-35.0848-5.027-18.4964-22.709-19.9337-28.009-19.9337-14.769.045-26.784 9.6219-32.585 17.8096-13.973 19.7259-13.361 35.8979-11.266 47.7829.616 3.493 2.98 10.065 2.98 10.065-10.706 5.645-20.853 9.015-33.2402 9.459-1.0745.039-5.6582.056-7.1304-.022-.3635-.019-1.4974-.171-1.4974-.171.0007 0 2.5877-1.658 3.1927-2.071 15.2763-10.425 22.0183-29.164 22.4823-45.696.384-13.6394-2.838-24.658-9.072-31.022-3.9136-3.9998-9.0915-6.0686-15.3908-6.148h-.2664c-11.1006 0-23.7445 6.6561-32.5508 14.9265-2.063 1.9376-7.9029 8.5075-7.9031 8.5078l3.6235-18.3071h-19.1724l-29.566 149.3178h19.1834l17.2966-87.386c3.7434-16.438 9.4829-26.856 20.4844-37.22l.1811-.155c2.7238-2.3106 5.8394-4.5064 8.7725-6.182 4.8475-2.7708 9.2331-4.176 13.0349-4.176 2.2551 0 4.2899.5023 6.0494 1.4927 6.2256 3.5236 6.9835 12.0823 7.391 16.6813 1.5963 18.119-12.3927 30.401-13.9931 31.742-4.6011 3.849-9.401 5.72-14.6746 5.72-7.0607 0-12.3527-2.504-15.3217-3.892-.1132.549-.857 4.199-.857 4.199-.7356 3.67-2.1579 11.043-2.1581 11.044 7.6898 6.582 23.0232 13.965 43.2508 15.127 1.6404.096 3.3035.144 4.9425.144 14.8649 0 29.4299-3.888 43.2909-11.556l.262-.144.225.194c5.263 4.532 10.332 6.743 11.998 7.469 9.684 4.223 20.225 3.962 21.259 3.962 12.794 0 24.744-3.688 28.101-4.818 21.277-7.163 33.347-20.558 37.891-25.54l3.465-3.653 2.2 4.057c2.907 5.383 6.202 11.484 12.011 18.125 2.412 2.758 11.524 11.754 27.532 11.754 15.196 0 30.827-10.271 30.828-10.272.003.003 5.13 4.036 10.664 6.644 6.934 3.267 15.014 3.62 18.166 3.62 15.752 0 28.758-5.862 42.17-19.009l.46-.451c.001.002 1.95 4.637 3.629 7.053 8.629 12.409 19.743 12.449 23.64 12.449 3.602 0 9.651-.624 14.203-2.383 20.339-7.864 36.133-29.744 43.737-42.086.001-.002 5.798-9.191 12.65-23.286l1.53-3.084c.001.001 3.653 8.667 3.654 8.67 2.102 5.101 4.062 10.783 4.995 14.475 2.575 9.976 4.3 18.745-.712 24.991-2.444 3.016-7.481 6.26-12.765 6.26-2.767 0-5.376-.865-7.754-2.572-.901-.663-1.835-1.499-2.787-2.489-3.885 4.848-7.914 9.273-11.986 13.166 3.499 2.533 11.672 8.497 23.909 8.497 3.725 0 9.027-.96 12.491-2.681 14.096-7.003 22.14-21.569 18.648-39.752zm-102.539-27.63 1.383-3.448c5.182-12.9153 12.679-28.1413 22.919-46.548 11.841-21.287 19.715-29.7792 23.354-32.9465l1.101-.9571.661-.575.041.8666.069 1.4421c.2 4.2884-1.189 10.5655-3.715 16.7914-4.208 10.3526-9.163 21.6367-19.28 35.7025-5.061 7.0319-13.327 16.7549-23.276 27.377l-2.552 2.728-1.538 1.644zm-263.341 33.488-.446.324s-.64-1.302-1.001-2.334c-1.458-4.175-1.94-11.006-1.214-16.541 1.282-9.573 5.539-16.023 7.311-18.3522 5.288-6.9518 11.349-10.7746 16.998-11.4368 1.964-.2301 5.342.048 8.277 2.8635 2.762 2.6497 7.635 12.0085-2.873 23.3175-3.204 3.446-6.053 6.205-12.736 11.723-5.002 4.15-12.803 9.422-14.316 10.436zm173.357.176-.487.325-.158-.558-.55-1.951c-1.534-5.44-1.941-11.009-1.209-16.55 1.264-9.538 5.533-16.01 7.309-18.35 5.284-6.9521 11.321-11.0118 16.998-11.4306.369-.0277.756-.0463 1.156-.0463 2.763 0 5.093.9485 7.121 2.8995 2.761 2.6586 7.625 12.0314-2.885 23.3254-3.208 3.449-6.057 6.209-12.722 11.728-5.493 4.548-14.483 10.548-14.573 10.608z"/></svg>